<?xml version="1.0" encoding="UTF-8" standalone="no"?><svg xmlns="http://www.w3.org/2000/svg" xmlns:xlink="http://www.w3.org/1999/xlink" id="WF" x="0px" y="0px" viewBox="0 0 469 147" xml:space="preserve"><g>	<g>		<path fill="#3399FF" d="M150.8,101.1c-0.2-0.9-0.8-1.2-1.8-1.2h-1v-6.1h4.7c2.8,0,4.2,0.7,4.8,3.2l5.3,23.3   c0.5,2.2,0.7,4.1,0.7,4.1h0.1c0,0,0.2-1.9,0.8-4.1l7.1-26.3h6.1l6.7,26.3c0.6,2.3,0.8,4.1,0.8,4.1h0.1c0,0,0.2-1.9,0.7-4.1   l5.4-23.3c0.5-2.5,2-3.2,4.8-3.2h4.7v6.1h-1c-1,0-1.5,0.3-1.8,1.2l-8.1,31.7h-8.3l-5.9-22.1c-0.7-2.5-1-4.8-1-4.8h-0.1   c0,0-0.3,2.3-1,4.8l-6.2,22.1h-8.4L150.8,101.1z"></path>		<path fill="#3399FF" d="M214.8,104.1c8,0,12.4,5.9,12.4,13.3c0,0.8-0.2,2.6-0.2,2.6h-19.4c0.5,4.9,4.2,7.5,8.4,7.5   c4.5,0,7.9-3.1,7.9-3.1l2.9,4.8c0,0-4.3,4.2-11.3,4.2c-9.3,0-15.1-6.7-15.1-14.7C200.5,110.2,206.3,104.1,214.8,104.1z M220,115.2   c-0.1-3.4-2.4-5.7-5.3-5.7c-3.6,0-6.1,2.1-6.9,5.7H220z"></path>		<path fill="#3399FF" d="M233.9,111.9c0-0.8-0.4-1.2-1.2-1.2h-2.2v-5.9h6.4c2.5,0,3.7,1,3.7,3.4v1.6c0,1-0.1,1.8-0.1,1.8h0.1   c1.3-4,4.6-7.2,8.9-7.2c0.6,0,1.3,0.1,1.3,0.1v6.9c0,0-0.7-0.1-1.7-0.1c-3,0-6.4,1.7-7.6,5.9c-0.4,1.4-0.6,2.9-0.6,4.6v11.1h-6.9   V111.9z"></path>		<path fill="#3399FF" d="M267,104.1c8,0,12.4,5.9,12.4,13.3c0,0.8-0.2,2.6-0.2,2.6h-19.4c0.6,4.9,4.2,7.5,8.4,7.5   c4.5,0,7.9-3.1,7.9-3.1l2.9,4.8c0,0-4.3,4.2-11.3,4.2c-9.3,0-15.1-6.7-15.1-14.7C252.8,110.2,258.6,104.1,267,104.1z M272.3,115.2   c-0.1-3.4-2.4-5.7-5.3-5.7c-3.6,0-6.1,2.1-6.9,5.7H272.3z"></path>		<path fill="#3399FF" d="M286.2,111.9c0-0.8-0.4-1.2-1.2-1.2h-2.2v-5.9h6.4c2.5,0,3.7,1.2,3.7,3.1v0.8c0,0.6-0.1,1.2-0.1,1.2h0.1   c1.2-2.4,4.2-5.8,9.9-5.8c6.2,0,9.8,3.2,9.8,10.7v10.9c0,0.8,0.4,1.2,1.2,1.2h2.2v5.9h-6.7c-2.6,0-3.7-1.1-3.7-3.7v-12.9   c0-3.4-0.9-5.7-4.4-5.7c-3.7,0-6.5,2.4-7.5,5.7c-0.4,1.2-0.6,2.4-0.6,3.7v12.9h-6.9V111.9z"></path>		<path fill="#3399FF" d="M321.6,110.3h-3.5v-5.6h3.5V104c0-9.2,7.5-10.4,11.4-10.4c1.4,0,2.4,0.2,2.4,0.2v5.9c0,0-0.6-0.1-1.4-0.1   c-2,0-5.4,0.5-5.4,4.6v0.7h6v5.6h-6v22.5h-7V110.3z"></path>		<path fill="#3399FF" d="M340.5,111.9c0-0.8-0.4-1.2-1.2-1.2h-2.2v-5.9h6.4c2.5,0,3.7,1,3.7,3.4v1.6c0,1-0.1,1.8-0.1,1.8h0.1   c1.3-4,4.6-7.2,8.9-7.2c0.6,0,1.3,0.1,1.3,0.1v6.9c0,0-0.7-0.1-1.7-0.1c-3,0-6.4,1.7-7.6,5.9c-0.4,1.4-0.6,2.9-0.6,4.6v11.1h-6.9   V111.9z"></path>		<path fill="#3399FF" d="M363.4,111.9c0-0.8-0.4-1.2-1.2-1.2H360v-5.9h6.7c2.6,0,3.7,1.2,3.7,3.7v17.2c0,0.8,0.4,1.2,1.2,1.2h2.2   v5.9h-6.7c-2.6,0-3.7-1.1-3.7-3.7V111.9z M363.7,93.8h6v6.4h-6V93.8z"></path>		<path fill="#3399FF" d="M389.6,104.1c6.1,0,8.1,3.4,8.1,3.4h0.1c0,0-0.1-0.7-0.1-1.6v-4.9c0-0.8-0.4-1.2-1.2-1.2h-2.2v-5.9h6.7   c2.6,0,3.7,1.2,3.7,3.7v28.2c0,0.8,0.4,1.2,1.2,1.2h2.1v5.9h-6.4c-2.5,0-3.5-1.2-3.5-2.9c0-0.6,0-1,0-1h-0.1c0,0-2.3,4.6-8.7,4.6   c-7.6,0-12.5-6-12.5-14.7C376.8,109.9,382.2,104.1,389.6,104.1z M397.9,118.7c0-4.3-2.3-8.6-6.9-8.6c-3.8,0-7,3.1-7,8.7   c0,5.3,2.8,8.8,6.9,8.8C394.5,127.6,397.9,125,397.9,118.7z"></path>		<path fill="#3399FF" d="M413.7,111.9c0-0.8-0.4-1.2-1.2-1.2h-2.2v-5.9h6.7c2.6,0,3.7,1.2,3.7,3.7v12.9c0,3.4,0.9,5.7,4.3,5.7   c5.1,0,7.9-4.5,7.9-9.5v-12.9h7v21c0,0.8,0.4,1.2,1.2,1.2h2.2v5.9h-6.4c-2.4,0-3.7-1.2-3.7-3.1v-0.8c0-0.7,0.1-1.3,0.1-1.3h-0.1   c-1.3,2.9-4.8,5.8-9.7,5.8c-6,0-9.7-3-9.7-10.7V111.9z"></path>		<path fill="#3399FF" d="M449.1,123.9c0,0,3.6,4.1,8.4,4.1c2.1,0,3.8-0.9,3.8-2.8c0-4-14.8-3.9-14.8-13c0-5.6,5.1-8.2,10.9-8.2   c3.8,0,9.8,1.3,9.8,5.8v2.9H461v-1.4c0-1.3-2-2-3.5-2c-2.5,0-4.2,0.9-4.2,2.5c0,4.4,14.9,3.5,14.9,12.9c0,5.3-4.7,8.6-10.8,8.6   c-7.7,0-11.7-5-11.7-5L449.1,123.9z"></path>	</g>	<g>		<g>			<g>				<path fill="#3399FF" d="M81.8,98.9c-8.1,0-16-1.5-23.4-4.7l0,0l0,0c-4.1-1.9-7.7-4.4-11.1-7.2c-7.9,10.9-14.5,23.2-19.6,36.2     c33.8-13.7,66.8-21.1,96-24.9c-2.4-2.6-4.7-5.1-6.9-7.6c-5,2.2-10,4.1-15.1,5.4C95.1,98,88.4,98.9,81.8,98.9z"></path>				<path fill="#3399FF" d="M84.3,75.3c-0.4,6.1-1.3,12.1-2.6,18.2c0.1,0,0.1,0,0.2,0c6,0,12.2-0.9,18.4-2.6     c4.3-1.2,8.6-2.7,12.9-4.5c-20.7-25.5-29-50.2-39-86.3c-1.8,4.6-3.5,9-5.3,13.4c9.8,14.8,15.6,33.4,15.6,54.4     C84.5,70.3,84.4,72.7,84.3,75.3z"></path>				<path fill="#3399FF" d="M63.3,61.4L63.3,61.4L63.3,61.4c4.7-4,9.5-7.3,14.4-10.1c-1.9-11.8-5.9-22.5-11.4-31.7     C48.8,61.5,30.1,94.8,7.1,132.3c4.6-2.2,9.2-4.3,13.7-6.2C29.7,100.9,44.3,77.7,63.3,61.4z"></path>			</g>		</g>		<path fill="#003399" d="M114.8,57c4.2,7.6,4.8,16.5,2.5,25.4c1.3,1.6,2.6,3.2,4,4.8c4.3-11.9,4.1-24.1-1.5-34.4   c-5.9-10.6-16.6-17.3-29.5-19.8c1,2.8,2,5.4,3.1,8.1C102.6,43.6,110.3,49,114.8,57z"></path>		<path fill="#003399" d="M47.2,48.4c1.9-3.9,3.7-7.9,5.6-12c-4.6,1.6-9.2,3.7-13.7,6.2C7.4,60.2-7.8,93.2,5,116.4   c0.8,1.4,1.7,2.8,2.7,4.1c3.2-5.3,6.3-10.5,9.4-15.7C10.8,85.9,23.3,61.8,47.2,48.4z"></path>		<path fill="#003399" d="M86.5,118.7c-16.5,9.1-34.4,11-48.2,6.4c-5.6,2.1-11.2,4.3-16.8,6.8c17,8.5,41.7,7.1,64.1-5.3   c10.1-5.6,18.5-12.7,24.9-20.6c-2.9,0.5-5.8,1-8.8,1.6C97.4,111.7,92.3,115.5,86.5,118.7z"></path>	</g>	<g>		<g>			<g>				<path fill="#003399" d="M157.8,41.4h-5.5c-0.7,0-1.1,0.4-1.1,1.1v2.2h-5.8V39c0-2.4,0.8-3.2,3.2-3.2h25c2.4,0,3.2,0.9,3.2,3.2     v5.7h-5.8v-2.2c0-0.7-0.4-1.1-1.1-1.1h-5.5v30.3h-6.6V41.4z"></path>				<path fill="#003399" d="M191.1,55.5h0.8v-0.2c0-3.7-1.5-5.1-4.7-5.1c-1.2,0-3.4,0.3-3.4,1.7v1.4h-6v-2.7c0-4.8,6.8-5.3,9.4-5.3     c8.6,0,11.1,4.5,11.1,10.3v9.6c0,0.7,0.4,1.1,1.1,1.1h2v5.4h-5.8c-2.4,0-3.3-1.3-3.3-2.8c0-0.7,0.1-1.1,0.1-1.1h-0.1     c0,0-2,4.5-7.8,4.5c-4.6,0-8.8-2.9-8.8-8C175.8,56.2,186.9,55.5,191.1,55.5z M186.1,67.3c3.4,0,5.9-3.6,5.9-6.8v-0.6h-1.1     c-3.3,0-8.6,0.5-8.6,4C182.2,65.7,183.5,67.3,186.1,67.3z"></path>				<path fill="#003399" d="M206.4,42.4c0-0.8-0.4-1.1-1.1-1.1h-2v-5.5h6.1c2.4,0,3.4,1.1,3.4,3.4v7.5c0,1.3-0.1,2.2-0.1,2.2h0.1     c0,0,2.3-3.6,7.7-3.6c7,0,11.4,5.5,11.4,13.5c0,8.2-5,13.5-11.8,13.5c-5.4,0-7.7-3.6-7.7-3.6h-0.1c0,0,0.1,0.7,0.1,1.7v1.3h-6.1     V42.4z M219,66.9c3.5,0,6.5-2.9,6.5-8c0-4.9-2.6-8.1-6.4-8.1c-3.3,0-6.5,2.4-6.5,8.1C212.6,62.9,214.7,66.9,219,66.9z"></path>				<path fill="#003399" d="M249.3,45.3c7.9,0,14.1,5.6,14.1,13.5c0,7.9-6.3,13.5-14.1,13.5c-7.8,0-14.1-5.6-14.1-13.5     C235.2,50.9,241.5,45.3,249.3,45.3z M249.3,66.8c4.2,0,7.7-3.2,7.7-8c0-4.7-3.5-8-7.7-8c-4.1,0-7.6,3.3-7.6,8     C241.7,63.6,245.2,66.8,249.3,66.8z"></path>				<path fill="#003399" d="M269.2,52.5c0-0.8-0.4-1.1-1.1-1.1h-2v-5.5h5.9c2.3,0,3.4,1,3.4,3.1v1.5c0,1-0.1,1.6-0.1,1.6h0.1     c1.2-3.7,4.2-6.6,8.2-6.6c0.6,0,1.2,0.1,1.2,0.1V52c0,0-0.7-0.1-1.6-0.1c-2.7,0-5.9,1.6-7,5.4c-0.4,1.3-0.6,2.7-0.6,4.2v10.2     h-6.4V52.5z"></path>			</g>		</g>		<path fill="#003399" d="M346.1,45.9c7.4,0,13.4,5.7,13.4,13.2c0,7.7-6,13.4-13.4,13.4c-7.4,0-13.4-5.8-13.4-13.4   C332.8,51.5,338.8,45.9,346.1,45.9z M346.2,69.4c5.4,0,9.8-4.4,9.8-10.4c0-5.8-4.4-10.1-9.8-10.1c-5.5,0-9.9,4.3-9.9,10.1   C336.3,65,340.7,69.4,346.2,69.4z"></path>		<path fill="#003399" d="M365.5,40.5c0-0.7-0.4-1.1-1.1-1.1h-2.1v-3h3.6c2.2,0,3.1,0.9,3.1,3.1v28.3c0,0.8,0.4,1.1,1.1,1.1h2.1v3   h-3.6c-2.2,0-3.1-0.9-3.1-3.1V40.5z"></path>		<path fill="#003399" d="M377.9,40.5c0-0.7-0.4-1.1-1.1-1.1h-2.1v-3h3.6c2.2,0,3.1,0.9,3.1,3.1v28.3c0,0.8,0.4,1.1,1.1,1.1h2.1v3   h-3.6c-2.2,0-3.1-0.9-3.1-3.1V40.5z"></path>		<path fill="#003399" d="M400.4,45.9c7,0,10.7,5.4,10.7,11.7c0,0.6-0.1,1.7-0.1,1.7h-19.5c0.1,6.4,4.6,10.1,9.8,10.1   c4.6,0,7.6-3.1,7.6-3.1l1.7,2.6c0,0-3.7,3.6-9.4,3.6c-7.5,0-13.3-5.5-13.3-13.3C387.9,50.9,393.6,45.9,400.4,45.9z M407.6,56.6   c-0.2-5.3-3.4-7.8-7.2-7.8c-4.2,0-7.9,2.7-8.7,7.8H407.6z"></path>		<path fill="#003399" d="M426.7,45.9c6.8,0,8.4,4.3,8.4,4.3h0.1c0,0,0-0.5,0-1c0-1.8,0.8-2.8,2.9-2.8h3.5v3h-2.1   c-0.7,0-1.1,0.4-1.1,1.1v20.7c0,8.1-6,11.2-12.2,11.2c-2.9,0-5.8-0.8-8.3-2l1.3-2.9c0,0,3.1,1.8,6.9,1.8c4.9,0,8.9-2.3,8.9-8v-2.2   c0-1,0.1-1.8,0.1-1.8H435c-1.5,2.8-4,4.4-8,4.4c-6.8,0-11.3-5.4-11.3-13C415.7,51.1,419.9,45.9,426.7,45.9z M435.1,58.7   c0-7.4-3.5-9.7-8-9.7c-5,0-7.8,3.6-7.8,9.6c0,6.1,3.3,10,8.3,10C431.5,68.7,435.1,66.2,435.1,58.7z"></path>		<path fill="#003399" d="M457.3,45.9c7,0,10.7,5.4,10.7,11.7c0,0.6-0.1,1.7-0.1,1.7h-19.5c0.1,6.4,4.6,10.1,9.8,10.1   c4.6,0,7.6-3.1,7.6-3.1l1.7,2.6c0,0-3.7,3.6-9.4,3.6c-7.5,0-13.3-5.5-13.3-13.3C444.8,50.9,450.5,45.9,457.3,45.9z M464.5,56.6   c-0.2-5.3-3.4-7.8-7.2-7.8c-4.2,0-7.9,2.7-8.7,7.8H464.5z"></path>		<path fill="#003399" d="M329,64.4c-1,1-5.1,4.7-11.4,4.7c-8.1,0-14.1-6.8-14.1-15.3c0-8.6,6.1-14.7,13.9-14.7   c4.1,0,9.8,1.8,9.8,5.2v2h3.3v-2.9c0-5.4-8.2-7.5-13.3-7.5c-10,0-17.5,7.8-17.5,18.1c0,10.4,7.3,18.6,17.7,18.6   c7.6,0,12.3-4.4,13.4-5.5L329,64.4z"></path>	</g></g></svg>